HIERARCHY
ROOT Hips
{
	OFFSET 0.00 0.00 0.00
	CHANNELS 6 Xposition Yposition Zposition Yrotation Xrotation Zrotation
	JOINT Chest
	{
		OFFSET	0.0000	9.2263	1.5771
		CHANNELS 3 Yrotation Xrotation Zrotation
		JOINT Chest2
		{
			OFFSET	0.0000	16.2540	-0.1656
			CHANNELS 3 Yrotation Xrotation Zrotation
			JOINT Chest3
			{
				OFFSET	0.0000	13.6396	-1.2923
				CHANNELS 3 Yrotation Xrotation Zrotation
				JOINT Neck
				{
					OFFSET	0.0000	13.8774	-4.3542
					CHANNELS 3 Yrotation Xrotation Zrotation
					JOINT Head
					{
						OFFSET	0.0000	4.0266	0.8585
						CHANNELS 3 Yrotation Xrotation Zrotation
						End Site
						{
							OFFSET 0.0000 17.8866 0.1231
						}
					}
				}
				JOINT LeftCollar
				{
					OFFSET	6.1442	10.1870	-3.7932
					CHANNELS 3 Yrotation Xrotation Zrotation
					JOINT LeftShoulder
					{
						OFFSET	12.3191	-1.1130	-1.7935
						CHANNELS 3 Yrotation Xrotation Zrotation
						JOINT LeftElbow
						{
							OFFSET	27.6870	0.0000	0.0000
							CHANNELS 3 Yrotation Xrotation Zrotation
							JOINT LeftHand
							{
								OFFSET	27.8738	0.0000	0.0000
								CHANNELS 3 Yrotation Xrotation Zrotation
								JOINT LeftFinger0
								{
									OFFSET	3.1460	-1.0029	4.0023
									CHANNELS 3 Yrotation Xrotation Zrotation
									JOINT LeftFinger01
									{
										OFFSET	4.3298	-1.0029	2.0796
										CHANNELS 3 Yrotation Xrotation Zrotation
										End Site
										{
											OFFSET 3.7362 -2.0137 1.7261
										}
									}
								}
								JOINT LeftFinger1
								{
									OFFSET	11.5739	0.0000	0.0000
									CHANNELS 3 Yrotation Xrotation Zrotation
									JOINT LeftFinger11
									{
										OFFSET	4.0578	0.0000	0.0000
										CHANNELS 3 Yrotation Xrotation Zrotation
										End Site
										{
											OFFSET 4.0431 0.0000 0.0000
										}
									}
								}
							}
						}
					}
				}
				JOINT RightCollar
				{
					OFFSET	-6.1402	10.1870	-3.7932
					CHANNELS 3 Yrotation Xrotation Zrotation
					JOINT RightShoulder
					{
						OFFSET	-12.3231	-1.1130	-1.7935
						CHANNELS 3 Yrotation Xrotation Zrotation
						JOINT RightElbow
						{
							OFFSET	-27.6870	0.0000	0.0000
							CHANNELS 3 Yrotation Xrotation Zrotation
							JOINT RightHand
							{
								OFFSET	-27.8738	0.0000	0.0000
								CHANNELS 3 Yrotation Xrotation Zrotation
								JOINT RightFinger0
								{
									OFFSET	-3.1758	-1.0029	3.9820
									CHANNELS 3 Yrotation Xrotation Zrotation
									JOINT RightFinger01
									{
										OFFSET	-4.2938	-1.0019	2.1232
										CHANNELS 3 Yrotation Xrotation Zrotation
										End Site
										{
											OFFSET -3.7424 -2.0137 1.7029
										}
									}
								}
								JOINT RightFinger1
								{
									OFFSET	-11.5739	0.0000	0.0000
									CHANNELS 3 Yrotation Xrotation Zrotation
									JOINT RightFinger11
									{
										OFFSET	-4.0578	0.0000	0.0000
										CHANNELS 3 Yrotation Xrotation Zrotation
										End Site
										{
											OFFSET -4.0431 0.0000 0.0000
										}
									}
								}
							}
						}
					}
				}
			}
		}
	}
	JOINT LeftHip
	{
		OFFSET	9.6338	-3.2733	0.0000
		CHANNELS 3 Yrotation Xrotation Zrotation
		JOINT LeftKnee
		{
			OFFSET	0.0000	-46.7251	-1.7300
			CHANNELS 3 Yrotation Xrotation Zrotation
			JOINT LeftAnkle
			{
				OFFSET	0.0126	-34.1943	-0.8477
				CHANNELS 3 Yrotation Xrotation Zrotation
				JOINT LeftToe
				{
					OFFSET	-0.1833	-12.0640	8.2823
					CHANNELS 3 Yrotation Xrotation Zrotation
					End Site
					{
						OFFSET 0.0000 0.1809 10.3623
					}
				}
			}
		}
	}
	JOINT RightHip
	{
		OFFSET	-9.6338	-3.2733	0.0000
		CHANNELS 3 Yrotation Xrotation Zrotation
		JOINT RightKnee
		{
			OFFSET	0.0000	-46.7251	-1.7300
			CHANNELS 3 Yrotation Xrotation Zrotation
			JOINT RightAnkle
			{
				OFFSET	0.0126	-34.1943	-0.8477
				CHANNELS 3 Yrotation Xrotation Zrotation
				JOINT RightToe
				{
					OFFSET	-0.1833	-12.0640	8.2823
					CHANNELS 3 Yrotation Xrotation Zrotation
					End Site
					{
						OFFSET 0.0032 0.1809 10.3623
					}
				}
			}
		}
	}
}
MOTION
Frames: 6
Frame Time: 0.0416667
-0.0384 82.8130 0.0600 -18.7566 19.8948 -9.0845 11.8531 14.8279 3.1786 3.0441 1.1238 0.7786 3.0041 1.1595 0.7592 -1.7300 -7.3946 1.5847 4.8567 -24.3853 -5.8339 3.0891 0.7413 -12.3318 20.9408 40.3674 -53.6764 -65.6527 0.0000 0.0000 -16.1853 -11.7582 107.2056 0.0000 -0.0000 0.0000 0.0000 -0.0000 0.0000 0.0000 -0.0000 0.0000 0.0000 -0.0000 0.0000 10.4334 0.0277 18.7992 20.3811 -24.6059 33.2611 101.3919 -0.0000 -0.0000 35.0306 -11.4968 -94.9126 0.0000 -0.0000 0.0000 0.0000 -0.0000 0.0000 0.0000 -0.0000 0.0000 0.0000 -0.0000 0.0000 8.3254 -61.5174 10.3015 178.4635 56.6217 179.7019 -2.5116 -18.8892 14.1940 -0.0000 -6.0087 0.0000 1.3146 -23.7306 2.1338 12.2989 53.0506 5.9737 -1.6739 -39.5831 4.0955 0.0000 -10.9732 -0.0000 
0.6609 84.1360 17.5846 -13.4222 21.1922 -1.7071 14.7359 13.5613 -2.6566 4.2411 0.7917 -0.0957 4.2264 0.8080 -0.1104 -2.5891 -7.5253 0.8179 -6.8004 -22.5516 -1.3725 2.6337 0.6041 -9.9512 35.9452 48.0743 -36.7631 -74.5290 -0.0000 0.0000 -14.9114 -11.6669 106.1225 0.0000 -0.0000 0.0000 0.0000 -0.0000 0.0000 0.0000 -0.0000 0.0000 0.0000 -0.0000 0.0000 7.7083 0.4005 14.7563 20.8425 -31.2931 25.9825 111.6505 -0.0000 -0.0000 42.0155 5.0379 -126.9212 0.0000 -0.0000 0.0000 0.0000 -0.0000 0.0000 0.0000 -0.0000 0.0000 0.0000 -0.0000 0.0000 18.7819 -75.4750 -6.1468 -175.1451 68.8231 -174.7627 -2.0026 -19.5986 13.4656 -0.0000 0.9686 -0.0000 -4.4399 -7.4063 -6.6721 11.2296 33.1498 0.4612 0.8535 -19.1633 7.2754 0.0125 -27.6083 -0.4608 
0.8597 85.7804 35.5201 -4.4487 23.6842 5.1259 14.5798 10.9714 -7.5195 4.4627 0.6292 -0.9584 4.4730 0.6097 -0.9703 -3.1942 -7.4657 0.2213 -16.4004 -19.1560 2.8109 -0.8485 0.5758 -9.1773 48.2477 49.8686 -20.2070 -81.5383 0.0000 0.0000 -13.7455 -12.0291 103.9595 0.0000 -0.0000 0.0000 0.0000 -0.0000 0.0000 0.0000 -0.0000 0.0000 0.0000 -0.0000 0.0000 4.0951 0.5742 13.9628 8.6844 -35.3513 25.2535 123.8982 -0.0000 -0.0000 30.7077 -9.9520 -101.8232 0.0000 -0.0000 0.0000 0.0000 -0.0000 0.0000 0.0000 -0.0000 0.0000 0.0000 -0.0000 0.0000 36.5295 -81.2854 -33.0917 13.9255 89.1231 14.4195 -0.0331 -14.6150 3.4290 -0.0000 0.2334 0.0000 -12.1486 7.0712 -12.3545 6.2428 9.0405 -3.6552 0.6741 10.6364 13.2040 -0.0385 -20.6934 1.9330 
0.9678 86.9423 53.8754 2.3453 24.3579 5.2128 12.9906 8.2700 -6.1147 3.8798 0.5428 -1.1412 3.8905 0.5167 -1.1562 -3.5868 -6.9858 0.4785 -20.5213 -18.0283 5.6596 -1.3707 0.5874 -9.8349 44.6536 50.4163 -19.6933 -82.6174 0.0001 0.0000 -13.7617 -12.1389 105.5899 0.0000 -0.0000 0.0000 0.0000 -0.0000 0.0000 0.0000 -0.0000 0.0000 0.0000 -0.0000 0.0000 3.1388 0.6138 16.6899 6.0602 -28.7618 22.5673 125.6551 0.0000 0.0000 30.9676 -7.3440 -98.9130 0.0000 -0.0000 0.0000 0.0000 -0.0000 0.0000 0.0000 -0.0000 0.0000 0.0000 -0.0000 0.0000 12.5530 -80.1743 -14.0336 3.2020 64.3090 2.9581 0.9992 -8.5043 -6.5678 0.0000 0.2861 -0.0000 -8.9286 12.9726 -7.0450 2.5563 17.0320 -4.1547 1.3224 12.7232 18.0962 -0.0000 -3.1186 0.0000 
1.2900 86.6948 71.9295 5.6592 22.2990 3.6681 10.1759 8.3520 -3.9942 2.9863 0.8855 -0.8494 2.9876 0.8728 -0.8756 -3.4773 -6.3791 0.6947 -20.2883 -18.0276 7.7080 -0.9515 0.6446 -12.6948 31.8189 46.5745 -30.3618 -82.9725 -0.0000 0.0000 -14.5659 -12.2881 107.3032 0.0000 -0.0000 0.0000 0.0000 -0.0000 0.0000 0.0000 -0.0000 0.0000 0.0000 -0.0000 0.0000 5.0537 0.4959 16.8904 4.2951 -13.2765 25.9420 119.9311 -0.0000 -0.0000 34.4750 -0.7021 -101.1628 0.0000 -0.0000 0.0000 0.0000 -0.0000 0.0000 0.0000 -0.0000 0.0000 0.0000 -0.0000 0.0000 0.4264 -72.0909 -2.6793 4.1828 48.2352 2.2081 1.3933 -6.2453 -12.3553 -0.0000 -0.5432 0.0000 -4.5713 10.8769 -1.3381 11.3613 46.4293 5.7102 0.2898 5.9738 18.5165 0.0000 -7.4885 0.0000 
1.6435 85.5387 89.9109 6.4615 19.2952 4.4181 8.2905 10.3952 -5.2915 2.5185 1.6952 -1.0074 2.5081 1.6803 -1.0551 -3.3195 -5.9403 0.8756 -19.9896 -20.1815 10.3435 -1.9968 0.6500 -16.1736 13.8010 34.1390 -41.3312 -81.7429 0.0000 0.0000 -16.1211 -12.9908 107.6658 0.0000 -0.0000 0.0000 0.0000 -0.0000 0.0000 0.0000 -0.0000 0.0000 0.0000 -0.0000 0.0000 5.0525 0.4860 17.4107 5.0832 5.0805 33.4815 106.6751 0.0000 0.0000 39.0542 -0.5905 -102.4995 0.0000 -0.0000 0.0000 0.0000 -0.0000 0.0000 0.0000 -0.0000 0.0000 0.0000 -0.0000 0.0000 3.7707 -62.1791 -4.3870 12.9112 47.0290 6.9797 1.3232 -8.4459 -9.1579 -0.0000 -1.1830 -0.0000 -4.3773 5.0876 -1.2464 27.3427 78.1197 26.1284 0.2065 6.4499 10.0996 0.0000 -17.1238 -0.0000 
